<svg width="139" height="139" viewBox="0 0 139 139" fill="none" xmlns="http://www.w3.org/2000/svg">
<circle cx="69.5" cy="69.5" r="69.5" fill="white"/>
<path fill-rule="evenodd" clip-rule="evenodd" d="M93.0668 43.2886L82.7782 33L75 40.7782L85.2886 51.0667L75 61.3553L82.7782 69.1335L93.0668 58.8449L103.284 69.0624L111.062 61.2843L100.845 51.0667L111.062 40.8493L103.284 33.0711L93.0668 43.2886Z" fill="black"/>
<path fill-rule="evenodd" clip-rule="evenodd" d="M109 84H29V95H65V102C65 111.389 72.6112 119 82 119C91.3888 119 99 111.389 99 102V95H109V84ZM75 95H89V102C89 105.866 85.866 109 82 109C78.134 109 75 105.866 75 102V95Z" fill="black"/>
<path fill-rule="evenodd" clip-rule="evenodd" d="M48 58C51.866 58 55 54.866 55 51C55 47.134 51.866 44 48 44C44.134 44 41 47.134 41 51C41 54.866 44.134 58 48 58ZM48 69C57.9411 69 66 60.9411 66 51C66 41.0589 57.9411 33 48 33C38.0589 33 30 41.0589 30 51C30 60.9411 38.0589 69 48 69Z" fill="black"/>
</svg>
